<mxfile host="app.diagrams.net" modified="2023-03-22T02:17:32.535Z" agent="5.0 (Macintosh; Intel Mac OS X 10_15_7) AppleWebKit/537.36 (KHTML, like Gecko) Chrome/110.0.0.0 Safari/537.36" etag="DDSvI6HJZxwDiW8wrtuK" version="21.0.6" type="github" pages="2">
  <diagram name="第 1 页" id="LHGgT_KMwW7Ryz2qY2tI">
    <mxGraphModel dx="1306" dy="843" grid="1" gridSize="10" guides="1" tooltips="1" connect="1" arrows="1" fold="1" page="1" pageScale="1" pageWidth="827" pageHeight="1169" math="0" shadow="0">
      <root>
        <mxCell id="0" />
        <mxCell id="1" parent="0" />
        <mxCell id="oK9c064ExcJ41yOFLu6--1" value="&lt;span&gt;Topic 10&lt;/span&gt;" style="whiteSpace=wrap;html=1;rounded=1;shadow=1;comic=0;labelBackgroundColor=none;strokeWidth=2;fontFamily=Verdana;fontSize=12;align=center;arcSize=50;" vertex="1" parent="1">
          <mxGeometry x="110" y="270" width="100" height="20" as="geometry" />
        </mxCell>
        <mxCell id="oK9c064ExcJ41yOFLu6--2" value="Sub-node 1" style="ellipse;whiteSpace=wrap;html=1;rounded=1;shadow=1;comic=0;labelBackgroundColor=none;strokeWidth=2;fontFamily=Verdana;fontSize=12;align=center;" vertex="1" parent="1">
          <mxGeometry x="230" y="310" width="120" height="80" as="geometry" />
        </mxCell>
        <mxCell id="oK9c064ExcJ41yOFLu6--3" value="&lt;span&gt;Sub-node 2&lt;/span&gt;" style="ellipse;whiteSpace=wrap;html=1;rounded=1;shadow=1;comic=0;labelBackgroundColor=none;strokeWidth=2;fontFamily=Verdana;fontSize=12;align=center;" vertex="1" parent="1">
          <mxGeometry x="620" y="310" width="120" height="80" as="geometry" />
        </mxCell>
        <mxCell id="oK9c064ExcJ41yOFLu6--4" value="Root node" style="ellipse;whiteSpace=wrap;html=1;rounded=1;shadow=1;comic=0;labelBackgroundColor=none;strokeWidth=2;fontFamily=Verdana;fontSize=12;align=center;" vertex="1" parent="1">
          <mxGeometry x="500" y="460" width="120" height="120" as="geometry" />
        </mxCell>
        <mxCell id="oK9c064ExcJ41yOFLu6--5" value="&lt;span&gt;书籍&lt;/span&gt;" style="ellipse;whiteSpace=wrap;html=1;rounded=1;shadow=1;comic=0;labelBackgroundColor=none;strokeWidth=2;fontFamily=Verdana;fontSize=12;align=center;" vertex="1" parent="1">
          <mxGeometry x="600" y="620" width="120" height="80" as="geometry" />
        </mxCell>
        <mxCell id="oK9c064ExcJ41yOFLu6--6" value="&lt;span&gt;解读&lt;/span&gt;" style="ellipse;whiteSpace=wrap;html=1;rounded=1;shadow=1;comic=0;labelBackgroundColor=none;strokeWidth=2;fontFamily=Verdana;fontSize=12;align=center;" vertex="1" parent="1">
          <mxGeometry x="827" y="780" width="120" height="80" as="geometry" />
        </mxCell>
        <mxCell id="oK9c064ExcJ41yOFLu6--7" value="&lt;span&gt;Sub-node 6&lt;/span&gt;" style="ellipse;whiteSpace=wrap;html=1;rounded=1;shadow=1;comic=0;labelBackgroundColor=none;strokeWidth=2;fontFamily=Verdana;fontSize=12;align=center;" vertex="1" parent="1">
          <mxGeometry x="410" y="680" width="120" height="80" as="geometry" />
        </mxCell>
        <mxCell id="oK9c064ExcJ41yOFLu6--8" value="&lt;span&gt;Topic 11&lt;/span&gt;" style="whiteSpace=wrap;html=1;rounded=1;shadow=1;comic=0;labelBackgroundColor=none;strokeWidth=2;fontFamily=Verdana;fontSize=12;align=center;arcSize=50;" vertex="1" parent="1">
          <mxGeometry x="80" y="340" width="100" height="20" as="geometry" />
        </mxCell>
        <mxCell id="oK9c064ExcJ41yOFLu6--9" value="&lt;span&gt;Topic 12&lt;/span&gt;" style="whiteSpace=wrap;html=1;rounded=1;shadow=1;comic=0;labelBackgroundColor=none;strokeWidth=2;fontFamily=Verdana;fontSize=12;align=center;arcSize=50;" vertex="1" parent="1">
          <mxGeometry x="80" y="410" width="100" height="20" as="geometry" />
        </mxCell>
        <mxCell id="oK9c064ExcJ41yOFLu6--10" value="&lt;span&gt;Topic 9&lt;/span&gt;" style="whiteSpace=wrap;html=1;rounded=1;shadow=1;comic=0;labelBackgroundColor=none;strokeWidth=2;fontFamily=Verdana;fontSize=12;align=center;arcSize=50;" vertex="1" parent="1">
          <mxGeometry x="290" y="240" width="100" height="20" as="geometry" />
        </mxCell>
        <mxCell id="oK9c064ExcJ41yOFLu6--11" value="&lt;span&gt;Topic 7&lt;/span&gt;" style="whiteSpace=wrap;html=1;rounded=1;shadow=1;comic=0;labelBackgroundColor=none;strokeWidth=2;fontFamily=Verdana;fontSize=12;align=center;arcSize=50;" vertex="1" parent="1">
          <mxGeometry x="540" y="260" width="100" height="20" as="geometry" />
        </mxCell>
        <mxCell id="oK9c064ExcJ41yOFLu6--12" value="&lt;span&gt;评价&lt;/span&gt;" style="whiteSpace=wrap;html=1;rounded=1;shadow=1;comic=0;labelBackgroundColor=none;strokeWidth=2;fontFamily=Verdana;fontSize=12;align=center;arcSize=50;" vertex="1" parent="1">
          <mxGeometry x="927" y="890" width="100" height="20" as="geometry" />
        </mxCell>
        <mxCell id="oK9c064ExcJ41yOFLu6--13" value="音频" style="whiteSpace=wrap;html=1;rounded=1;shadow=1;comic=0;labelBackgroundColor=none;strokeWidth=2;fontFamily=Verdana;fontSize=12;align=center;arcSize=50;" vertex="1" parent="1">
          <mxGeometry x="997" y="840" width="100" height="20" as="geometry" />
        </mxCell>
        <mxCell id="oK9c064ExcJ41yOFLu6--14" value="&lt;span&gt;Topic 6&lt;/span&gt;" style="whiteSpace=wrap;html=1;rounded=1;shadow=1;comic=0;labelBackgroundColor=none;strokeWidth=2;fontFamily=Verdana;fontSize=12;align=center;arcSize=50;" vertex="1" parent="1">
          <mxGeometry x="620" y="220" width="100" height="20" as="geometry" />
        </mxCell>
        <mxCell id="oK9c064ExcJ41yOFLu6--15" value="&lt;span&gt;Topic 5&lt;/span&gt;" style="whiteSpace=wrap;html=1;rounded=1;shadow=1;comic=0;labelBackgroundColor=none;strokeWidth=2;fontFamily=Verdana;fontSize=12;align=center;arcSize=50;" vertex="1" parent="1">
          <mxGeometry x="740" y="240" width="100" height="20" as="geometry" />
        </mxCell>
        <mxCell id="oK9c064ExcJ41yOFLu6--16" value="&lt;span&gt;Topic 4&lt;/span&gt;" style="whiteSpace=wrap;html=1;rounded=1;shadow=1;comic=0;labelBackgroundColor=none;strokeWidth=2;fontFamily=Verdana;fontSize=12;align=center;arcSize=50;" vertex="1" parent="1">
          <mxGeometry x="790" y="290" width="100" height="20" as="geometry" />
        </mxCell>
        <mxCell id="oK9c064ExcJ41yOFLu6--17" value="&lt;span&gt;Topic 3&lt;/span&gt;" style="whiteSpace=wrap;html=1;rounded=1;shadow=1;comic=0;labelBackgroundColor=none;strokeWidth=2;fontFamily=Verdana;fontSize=12;align=center;arcSize=50;" vertex="1" parent="1">
          <mxGeometry x="810" y="330" width="100" height="20" as="geometry" />
        </mxCell>
        <mxCell id="oK9c064ExcJ41yOFLu6--18" value="&lt;span&gt;Topic 2&lt;/span&gt;" style="whiteSpace=wrap;html=1;rounded=1;shadow=1;comic=0;labelBackgroundColor=none;strokeWidth=2;fontFamily=Verdana;fontSize=12;align=center;arcSize=50;" vertex="1" parent="1">
          <mxGeometry x="810" y="400" width="100" height="20" as="geometry" />
        </mxCell>
        <mxCell id="oK9c064ExcJ41yOFLu6--19" value="Topic 1" style="whiteSpace=wrap;html=1;rounded=1;shadow=1;comic=0;labelBackgroundColor=none;strokeWidth=2;fontFamily=Verdana;fontSize=12;align=center;arcSize=50;" vertex="1" parent="1">
          <mxGeometry x="670" y="420" width="100" height="20" as="geometry" />
        </mxCell>
        <mxCell id="oK9c064ExcJ41yOFLu6--20" value="&lt;span&gt;播放量&lt;/span&gt;" style="whiteSpace=wrap;html=1;rounded=1;shadow=1;comic=0;labelBackgroundColor=none;strokeWidth=2;fontFamily=Verdana;fontSize=12;align=center;arcSize=50;" vertex="1" parent="1">
          <mxGeometry x="827" y="930" width="100" height="20" as="geometry" />
        </mxCell>
        <mxCell id="oK9c064ExcJ41yOFLu6--21" value="End" style="whiteSpace=wrap;html=1;rounded=1;shadow=1;comic=0;labelBackgroundColor=none;strokeWidth=2;fontFamily=Verdana;fontSize=12;align=center;arcSize=50;" vertex="1" parent="1">
          <mxGeometry x="30" y="510" width="100" height="40" as="geometry" />
        </mxCell>
        <mxCell id="oK9c064ExcJ41yOFLu6--22" value="Condition" style="rhombus;whiteSpace=wrap;html=1;rounded=0;shadow=1;comic=0;labelBackgroundColor=none;strokeWidth=2;fontFamily=Verdana;fontSize=12;align=center;" vertex="1" parent="1">
          <mxGeometry x="40" y="650" width="80" height="80" as="geometry" />
        </mxCell>
        <mxCell id="oK9c064ExcJ41yOFLu6--23" value="&lt;span&gt;Process 3&lt;/span&gt;" style="rounded=1;whiteSpace=wrap;html=1;shadow=1;comic=0;labelBackgroundColor=none;strokeWidth=2;fontFamily=Verdana;fontSize=12;align=center;" vertex="1" parent="1">
          <mxGeometry x="20" y="760" width="120" height="60" as="geometry" />
        </mxCell>
        <mxCell id="oK9c064ExcJ41yOFLu6--24" value="Process 2" style="rounded=1;whiteSpace=wrap;html=1;shadow=1;comic=0;labelBackgroundColor=none;strokeWidth=2;fontFamily=Verdana;fontSize=12;align=center;" vertex="1" parent="1">
          <mxGeometry x="250" y="770" width="120" height="60" as="geometry" />
        </mxCell>
        <mxCell id="oK9c064ExcJ41yOFLu6--25" value="relation" style="edgeStyle=none;rounded=1;html=1;labelBackgroundColor=none;startArrow=none;startFill=0;startSize=5;endArrow=classicThin;endFill=1;endSize=5;jettySize=auto;orthogonalLoop=1;strokeColor=#B3B3B3;strokeWidth=1;fontFamily=Verdana;fontSize=12" edge="1" parent="1" source="oK9c064ExcJ41yOFLu6--2" target="oK9c064ExcJ41yOFLu6--10">
          <mxGeometry relative="1" as="geometry" />
        </mxCell>
        <mxCell id="oK9c064ExcJ41yOFLu6--26" value="relation" style="edgeStyle=none;rounded=1;html=1;labelBackgroundColor=none;startArrow=none;startFill=0;startSize=5;endArrow=classicThin;endFill=1;endSize=5;jettySize=auto;orthogonalLoop=1;strokeColor=#B3B3B3;strokeWidth=1;fontFamily=Verdana;fontSize=12" edge="1" parent="1" source="oK9c064ExcJ41yOFLu6--2" target="oK9c064ExcJ41yOFLu6--1">
          <mxGeometry relative="1" as="geometry" />
        </mxCell>
        <mxCell id="oK9c064ExcJ41yOFLu6--27" value="relation" style="edgeStyle=none;rounded=1;html=1;labelBackgroundColor=none;startArrow=none;startFill=0;startSize=5;endArrow=classicThin;endFill=1;endSize=5;jettySize=auto;orthogonalLoop=1;strokeColor=#B3B3B3;strokeWidth=1;fontFamily=Verdana;fontSize=12" edge="1" parent="1" source="oK9c064ExcJ41yOFLu6--2" target="oK9c064ExcJ41yOFLu6--8">
          <mxGeometry relative="1" as="geometry" />
        </mxCell>
        <mxCell id="oK9c064ExcJ41yOFLu6--28" value="relation" style="edgeStyle=none;rounded=1;html=1;labelBackgroundColor=none;startArrow=none;startFill=0;startSize=5;endArrow=classicThin;endFill=1;endSize=5;jettySize=auto;orthogonalLoop=1;strokeColor=#B3B3B3;strokeWidth=1;fontFamily=Verdana;fontSize=12" edge="1" parent="1" source="oK9c064ExcJ41yOFLu6--2" target="oK9c064ExcJ41yOFLu6--9">
          <mxGeometry relative="1" as="geometry" />
        </mxCell>
        <mxCell id="oK9c064ExcJ41yOFLu6--29" value="relation" style="edgeStyle=none;rounded=1;html=1;labelBackgroundColor=none;startArrow=none;startFill=0;startSize=5;endArrow=classicThin;endFill=1;endSize=5;jettySize=auto;orthogonalLoop=1;strokeColor=#B3B3B3;strokeWidth=1;fontFamily=Verdana;fontSize=12" edge="1" parent="1" source="oK9c064ExcJ41yOFLu6--4" target="oK9c064ExcJ41yOFLu6--2">
          <mxGeometry relative="1" as="geometry" />
        </mxCell>
        <mxCell id="oK9c064ExcJ41yOFLu6--30" value="relation" style="edgeStyle=none;rounded=1;html=1;labelBackgroundColor=none;startArrow=none;startFill=0;startSize=5;endArrow=classicThin;endFill=1;endSize=5;jettySize=auto;orthogonalLoop=1;strokeColor=#B3B3B3;strokeWidth=1;fontFamily=Verdana;fontSize=12" edge="1" parent="1" source="oK9c064ExcJ41yOFLu6--4" target="oK9c064ExcJ41yOFLu6--3">
          <mxGeometry relative="1" as="geometry" />
        </mxCell>
        <mxCell id="oK9c064ExcJ41yOFLu6--31" value="relation" style="edgeStyle=none;rounded=1;html=1;labelBackgroundColor=none;startArrow=none;startFill=0;startSize=5;endArrow=classicThin;endFill=1;endSize=5;jettySize=auto;orthogonalLoop=1;strokeColor=#B3B3B3;strokeWidth=1;fontFamily=Verdana;fontSize=12" edge="1" parent="1" source="oK9c064ExcJ41yOFLu6--4" target="oK9c064ExcJ41yOFLu6--5">
          <mxGeometry relative="1" as="geometry" />
        </mxCell>
        <mxCell id="oK9c064ExcJ41yOFLu6--32" value="relation" style="edgeStyle=none;rounded=1;html=1;labelBackgroundColor=none;startArrow=none;startFill=0;startSize=5;endArrow=classicThin;endFill=1;endSize=5;jettySize=auto;orthogonalLoop=1;strokeColor=#B3B3B3;strokeWidth=1;fontFamily=Verdana;fontSize=12" edge="1" parent="1" source="oK9c064ExcJ41yOFLu6--5" target="oK9c064ExcJ41yOFLu6--7">
          <mxGeometry relative="1" as="geometry" />
        </mxCell>
        <mxCell id="oK9c064ExcJ41yOFLu6--33" value="relation" style="edgeStyle=none;rounded=1;html=1;labelBackgroundColor=none;startArrow=none;startFill=0;startSize=5;endArrow=classicThin;endFill=1;endSize=5;jettySize=auto;orthogonalLoop=1;strokeColor=#B3B3B3;strokeWidth=1;fontFamily=Verdana;fontSize=12" edge="1" parent="1" source="oK9c064ExcJ41yOFLu6--5" target="oK9c064ExcJ41yOFLu6--6">
          <mxGeometry relative="1" as="geometry" />
        </mxCell>
        <mxCell id="oK9c064ExcJ41yOFLu6--34" value="relation" style="edgeStyle=none;rounded=1;html=1;labelBackgroundColor=none;startArrow=none;startFill=0;startSize=5;endArrow=classicThin;endFill=1;endSize=5;jettySize=auto;orthogonalLoop=1;strokeColor=#B3B3B3;strokeWidth=1;fontFamily=Verdana;fontSize=12" edge="1" parent="1" source="oK9c064ExcJ41yOFLu6--6" target="oK9c064ExcJ41yOFLu6--13">
          <mxGeometry relative="1" as="geometry" />
        </mxCell>
        <mxCell id="oK9c064ExcJ41yOFLu6--35" value="relation" style="edgeStyle=none;rounded=1;html=1;labelBackgroundColor=none;startArrow=none;startFill=0;startSize=5;endArrow=classicThin;endFill=1;endSize=5;jettySize=auto;orthogonalLoop=1;strokeColor=#B3B3B3;strokeWidth=1;fontFamily=Verdana;fontSize=12" edge="1" parent="1" source="oK9c064ExcJ41yOFLu6--6" target="oK9c064ExcJ41yOFLu6--12">
          <mxGeometry relative="1" as="geometry" />
        </mxCell>
        <mxCell id="oK9c064ExcJ41yOFLu6--36" value="relation" style="edgeStyle=none;rounded=1;html=1;labelBackgroundColor=none;startArrow=none;startFill=0;startSize=5;endArrow=classicThin;endFill=1;endSize=5;jettySize=auto;orthogonalLoop=1;strokeColor=#B3B3B3;strokeWidth=1;fontFamily=Verdana;fontSize=12" edge="1" parent="1" source="oK9c064ExcJ41yOFLu6--6" target="oK9c064ExcJ41yOFLu6--20">
          <mxGeometry relative="1" as="geometry" />
        </mxCell>
        <mxCell id="oK9c064ExcJ41yOFLu6--37" value="relation" style="edgeStyle=none;rounded=1;html=1;labelBackgroundColor=none;startArrow=none;startFill=0;startSize=5;endArrow=classicThin;endFill=1;endSize=5;jettySize=auto;orthogonalLoop=1;strokeColor=#B3B3B3;strokeWidth=1;fontFamily=Verdana;fontSize=12" edge="1" parent="1" source="oK9c064ExcJ41yOFLu6--3" target="oK9c064ExcJ41yOFLu6--19">
          <mxGeometry relative="1" as="geometry" />
        </mxCell>
        <mxCell id="oK9c064ExcJ41yOFLu6--38" value="relation" style="edgeStyle=none;rounded=1;html=1;labelBackgroundColor=none;startArrow=none;startFill=0;startSize=5;endArrow=classicThin;endFill=1;endSize=5;jettySize=auto;orthogonalLoop=1;strokeColor=#B3B3B3;strokeWidth=1;fontFamily=Verdana;fontSize=12" edge="1" parent="1" source="oK9c064ExcJ41yOFLu6--3" target="oK9c064ExcJ41yOFLu6--18">
          <mxGeometry relative="1" as="geometry" />
        </mxCell>
        <mxCell id="oK9c064ExcJ41yOFLu6--39" value="relation" style="edgeStyle=none;rounded=1;html=1;labelBackgroundColor=none;startArrow=none;startFill=0;startSize=5;endArrow=classicThin;endFill=1;endSize=5;jettySize=auto;orthogonalLoop=1;strokeColor=#B3B3B3;strokeWidth=1;fontFamily=Verdana;fontSize=12" edge="1" parent="1" source="oK9c064ExcJ41yOFLu6--3" target="oK9c064ExcJ41yOFLu6--17">
          <mxGeometry relative="1" as="geometry" />
        </mxCell>
        <mxCell id="oK9c064ExcJ41yOFLu6--40" value="relation" style="edgeStyle=none;rounded=1;html=1;labelBackgroundColor=none;startArrow=none;startFill=0;startSize=5;endArrow=classicThin;endFill=1;endSize=5;jettySize=auto;orthogonalLoop=1;strokeColor=#B3B3B3;strokeWidth=1;fontFamily=Verdana;fontSize=12" edge="1" parent="1" source="oK9c064ExcJ41yOFLu6--3" target="oK9c064ExcJ41yOFLu6--16">
          <mxGeometry relative="1" as="geometry" />
        </mxCell>
        <mxCell id="oK9c064ExcJ41yOFLu6--41" value="relation" style="edgeStyle=none;rounded=1;html=1;labelBackgroundColor=none;startArrow=none;startFill=0;startSize=5;endArrow=classicThin;endFill=1;endSize=5;jettySize=auto;orthogonalLoop=1;strokeColor=#B3B3B3;strokeWidth=1;fontFamily=Verdana;fontSize=12" edge="1" parent="1" source="oK9c064ExcJ41yOFLu6--3" target="oK9c064ExcJ41yOFLu6--15">
          <mxGeometry relative="1" as="geometry" />
        </mxCell>
        <mxCell id="oK9c064ExcJ41yOFLu6--42" value="relation" style="edgeStyle=none;rounded=1;html=1;labelBackgroundColor=none;startArrow=none;startFill=0;startSize=5;endArrow=classicThin;endFill=1;endSize=5;jettySize=auto;orthogonalLoop=1;strokeColor=#B3B3B3;strokeWidth=1;fontFamily=Verdana;fontSize=12" edge="1" parent="1" source="oK9c064ExcJ41yOFLu6--3" target="oK9c064ExcJ41yOFLu6--14">
          <mxGeometry relative="1" as="geometry" />
        </mxCell>
        <mxCell id="oK9c064ExcJ41yOFLu6--43" value="relation" style="edgeStyle=none;rounded=1;html=1;labelBackgroundColor=none;startArrow=none;startFill=0;startSize=5;endArrow=classicThin;endFill=1;endSize=5;jettySize=auto;orthogonalLoop=1;strokeColor=#B3B3B3;strokeWidth=1;fontFamily=Verdana;fontSize=12" edge="1" parent="1" source="oK9c064ExcJ41yOFLu6--3" target="oK9c064ExcJ41yOFLu6--11">
          <mxGeometry relative="1" as="geometry" />
        </mxCell>
        <mxCell id="oK9c064ExcJ41yOFLu6--44" value="relation" style="edgeStyle=none;rounded=1;html=1;labelBackgroundColor=none;startArrow=none;startFill=0;startSize=5;endArrow=classicThin;endFill=1;endSize=5;jettySize=auto;orthogonalLoop=1;strokeColor=#B3B3B3;strokeWidth=1;fontFamily=Verdana;fontSize=12" edge="1" parent="1" source="oK9c064ExcJ41yOFLu6--7" target="oK9c064ExcJ41yOFLu6--24">
          <mxGeometry relative="1" as="geometry" />
        </mxCell>
        <mxCell id="oK9c064ExcJ41yOFLu6--45" value="relation" style="edgeStyle=none;rounded=1;html=1;labelBackgroundColor=none;startArrow=none;startFill=0;startSize=5;endArrow=classicThin;endFill=1;endSize=5;jettySize=auto;orthogonalLoop=1;strokeColor=#B3B3B3;strokeWidth=1;fontFamily=Verdana;fontSize=12" edge="1" parent="1" source="oK9c064ExcJ41yOFLu6--24" target="oK9c064ExcJ41yOFLu6--23">
          <mxGeometry relative="1" as="geometry" />
        </mxCell>
        <mxCell id="oK9c064ExcJ41yOFLu6--46" value="relation" style="edgeStyle=none;rounded=1;html=1;labelBackgroundColor=none;startArrow=none;startFill=0;startSize=5;endArrow=classicThin;endFill=1;endSize=5;jettySize=auto;orthogonalLoop=1;strokeColor=#B3B3B3;strokeWidth=1;fontFamily=Verdana;fontSize=12" edge="1" parent="1" source="oK9c064ExcJ41yOFLu6--23" target="oK9c064ExcJ41yOFLu6--22">
          <mxGeometry relative="1" as="geometry" />
        </mxCell>
        <mxCell id="oK9c064ExcJ41yOFLu6--47" value="Yes" style="edgeStyle=none;rounded=1;html=1;labelBackgroundColor=none;startArrow=none;startFill=0;startSize=5;endArrow=classicThin;endFill=1;endSize=5;jettySize=auto;orthogonalLoop=1;strokeColor=#B3B3B3;strokeWidth=1;fontFamily=Verdana;fontSize=12" edge="1" parent="1" source="oK9c064ExcJ41yOFLu6--22" target="oK9c064ExcJ41yOFLu6--21">
          <mxGeometry x="-0.7935" y="10" relative="1" as="geometry">
            <mxPoint as="offset" />
          </mxGeometry>
        </mxCell>
        <mxCell id="oK9c064ExcJ41yOFLu6--48" value="Process 1" style="rounded=1;whiteSpace=wrap;html=1;shadow=1;comic=0;labelBackgroundColor=none;strokeWidth=2;fontFamily=Verdana;fontSize=12;align=center;" vertex="1" parent="1">
          <mxGeometry x="670" y="510" width="120" height="60" as="geometry" />
        </mxCell>
        <mxCell id="oK9c064ExcJ41yOFLu6--49" value="&lt;span&gt;电子书&lt;/span&gt;" style="ellipse;whiteSpace=wrap;html=1;rounded=1;shadow=1;comic=0;labelBackgroundColor=none;strokeWidth=2;fontFamily=Verdana;fontSize=12;align=center;" vertex="1" parent="1">
          <mxGeometry x="870" y="500" width="120" height="80" as="geometry" />
        </mxCell>
        <mxCell id="oK9c064ExcJ41yOFLu6--50" value="&lt;span&gt;Topic 24&lt;/span&gt;" style="whiteSpace=wrap;html=1;rounded=1;shadow=1;comic=0;labelBackgroundColor=none;strokeWidth=2;fontFamily=Verdana;fontSize=12;align=center;arcSize=50;" vertex="1" parent="1">
          <mxGeometry x="940" y="450" width="100" height="20" as="geometry" />
        </mxCell>
        <mxCell id="oK9c064ExcJ41yOFLu6--51" value="&lt;span&gt;Topic 23&lt;/span&gt;" style="whiteSpace=wrap;html=1;rounded=1;shadow=1;comic=0;labelBackgroundColor=none;strokeWidth=2;fontFamily=Verdana;fontSize=12;align=center;arcSize=50;" vertex="1" parent="1">
          <mxGeometry x="920" y="615" width="100" height="20" as="geometry" />
        </mxCell>
        <mxCell id="oK9c064ExcJ41yOFLu6--52" value="&lt;span&gt;Topic 8&lt;/span&gt;" style="whiteSpace=wrap;html=1;rounded=1;shadow=1;comic=0;labelBackgroundColor=none;strokeWidth=2;fontFamily=Verdana;fontSize=12;align=center;arcSize=50;" vertex="1" parent="1">
          <mxGeometry x="410" y="380" width="100" height="20" as="geometry" />
        </mxCell>
        <mxCell id="oK9c064ExcJ41yOFLu6--53" value="&lt;span&gt;Topic 13&lt;/span&gt;" style="whiteSpace=wrap;html=1;rounded=1;shadow=1;comic=0;labelBackgroundColor=none;strokeWidth=2;fontFamily=Verdana;fontSize=12;align=center;arcSize=50;" vertex="1" parent="1">
          <mxGeometry x="240" y="440" width="100" height="20" as="geometry" />
        </mxCell>
        <mxCell id="oK9c064ExcJ41yOFLu6--54" value="&lt;span&gt;Topic 19&lt;/span&gt;" style="whiteSpace=wrap;html=1;rounded=1;shadow=1;comic=0;labelBackgroundColor=none;strokeWidth=2;fontFamily=Verdana;fontSize=12;align=center;arcSize=50;" vertex="1" parent="1">
          <mxGeometry x="590" y="770" width="100" height="20" as="geometry" />
        </mxCell>
        <mxCell id="oK9c064ExcJ41yOFLu6--55" value="&lt;span&gt;Topic 18&lt;/span&gt;" style="whiteSpace=wrap;html=1;rounded=1;shadow=1;comic=0;labelBackgroundColor=none;strokeWidth=2;fontFamily=Verdana;fontSize=12;align=center;arcSize=50;" vertex="1" parent="1">
          <mxGeometry x="460" y="810" width="100" height="20" as="geometry" />
        </mxCell>
        <mxCell id="oK9c064ExcJ41yOFLu6--56" value="&lt;span&gt;Topic 17&lt;/span&gt;" style="whiteSpace=wrap;html=1;rounded=1;shadow=1;comic=0;labelBackgroundColor=none;strokeWidth=2;fontFamily=Verdana;fontSize=12;align=center;arcSize=50;" vertex="1" parent="1">
          <mxGeometry x="380" y="615" width="100" height="20" as="geometry" />
        </mxCell>
        <mxCell id="oK9c064ExcJ41yOFLu6--57" value="relation" style="edgeStyle=none;rounded=1;html=1;labelBackgroundColor=none;startArrow=none;startFill=0;startSize=5;endArrow=classicThin;endFill=1;endSize=5;jettySize=auto;orthogonalLoop=1;strokeColor=#B3B3B3;strokeWidth=1;fontFamily=Verdana;fontSize=12" edge="1" parent="1" source="oK9c064ExcJ41yOFLu6--2" target="oK9c064ExcJ41yOFLu6--52">
          <mxGeometry relative="1" as="geometry" />
        </mxCell>
        <mxCell id="oK9c064ExcJ41yOFLu6--58" value="relation" style="edgeStyle=none;rounded=1;html=1;labelBackgroundColor=none;startArrow=none;startFill=0;startSize=5;endArrow=classicThin;endFill=1;endSize=5;jettySize=auto;orthogonalLoop=1;strokeColor=#B3B3B3;strokeWidth=1;fontFamily=Verdana;fontSize=12" edge="1" parent="1" source="oK9c064ExcJ41yOFLu6--2" target="oK9c064ExcJ41yOFLu6--53">
          <mxGeometry relative="1" as="geometry" />
        </mxCell>
        <mxCell id="oK9c064ExcJ41yOFLu6--59" value="relation" style="edgeStyle=none;rounded=1;html=1;labelBackgroundColor=none;startArrow=none;startFill=0;startSize=5;endArrow=classicThin;endFill=1;endSize=5;jettySize=auto;orthogonalLoop=1;strokeColor=#B3B3B3;strokeWidth=1;fontFamily=Verdana;fontSize=12" edge="1" parent="1" source="oK9c064ExcJ41yOFLu6--49" target="oK9c064ExcJ41yOFLu6--50">
          <mxGeometry relative="1" as="geometry" />
        </mxCell>
        <mxCell id="oK9c064ExcJ41yOFLu6--60" value="relation" style="edgeStyle=none;rounded=1;html=1;labelBackgroundColor=none;startArrow=none;startFill=0;startSize=5;endArrow=classicThin;endFill=1;endSize=5;jettySize=auto;orthogonalLoop=1;strokeColor=#B3B3B3;strokeWidth=1;fontFamily=Verdana;fontSize=12" edge="1" parent="1" source="oK9c064ExcJ41yOFLu6--49" target="oK9c064ExcJ41yOFLu6--51">
          <mxGeometry relative="1" as="geometry" />
        </mxCell>
        <mxCell id="oK9c064ExcJ41yOFLu6--61" value="relation" style="edgeStyle=none;rounded=1;html=1;labelBackgroundColor=none;startArrow=none;startFill=0;startSize=5;endArrow=classicThin;endFill=1;endSize=5;jettySize=auto;orthogonalLoop=1;strokeColor=#B3B3B3;strokeWidth=1;fontFamily=Verdana;fontSize=12" edge="1" parent="1" source="oK9c064ExcJ41yOFLu6--48" target="oK9c064ExcJ41yOFLu6--49">
          <mxGeometry relative="1" as="geometry" />
        </mxCell>
        <mxCell id="oK9c064ExcJ41yOFLu6--62" value="relation" style="edgeStyle=none;rounded=1;html=1;labelBackgroundColor=none;startArrow=none;startFill=0;startSize=5;endArrow=classicThin;endFill=1;endSize=5;jettySize=auto;orthogonalLoop=1;strokeColor=#B3B3B3;strokeWidth=1;fontFamily=Verdana;fontSize=12" edge="1" parent="1" source="oK9c064ExcJ41yOFLu6--48" target="oK9c064ExcJ41yOFLu6--5">
          <mxGeometry relative="1" as="geometry" />
        </mxCell>
        <mxCell id="oK9c064ExcJ41yOFLu6--63" value="&lt;span&gt;Sub-node 7&lt;/span&gt;" style="ellipse;whiteSpace=wrap;html=1;rounded=1;shadow=1;comic=0;labelBackgroundColor=none;strokeWidth=2;fontFamily=Verdana;fontSize=12;align=center;" vertex="1" parent="1">
          <mxGeometry x="160" y="650" width="120" height="80" as="geometry" />
        </mxCell>
        <mxCell id="oK9c064ExcJ41yOFLu6--64" value="&lt;span&gt;Topic 16&lt;/span&gt;" style="whiteSpace=wrap;html=1;rounded=1;shadow=1;comic=0;labelBackgroundColor=none;strokeWidth=2;fontFamily=Verdana;fontSize=12;align=center;arcSize=50;" vertex="1" parent="1">
          <mxGeometry x="280" y="560" width="100" height="20" as="geometry" />
        </mxCell>
        <mxCell id="oK9c064ExcJ41yOFLu6--65" value="&lt;span&gt;Topic 15&lt;/span&gt;" style="whiteSpace=wrap;html=1;rounded=1;shadow=1;comic=0;labelBackgroundColor=none;strokeWidth=2;fontFamily=Verdana;fontSize=12;align=center;arcSize=50;" vertex="1" parent="1">
          <mxGeometry x="220" y="530" width="100" height="20" as="geometry" />
        </mxCell>
        <mxCell id="oK9c064ExcJ41yOFLu6--66" value="&lt;span&gt;Topic 14&lt;/span&gt;" style="whiteSpace=wrap;html=1;rounded=1;shadow=1;comic=0;labelBackgroundColor=none;strokeWidth=2;fontFamily=Verdana;fontSize=12;align=center;arcSize=50;" vertex="1" parent="1">
          <mxGeometry x="130" y="570" width="100" height="20" as="geometry" />
        </mxCell>
        <mxCell id="oK9c064ExcJ41yOFLu6--67" value="relation" style="edgeStyle=none;rounded=1;html=1;labelBackgroundColor=none;startArrow=none;startFill=0;startSize=5;endArrow=classicThin;endFill=1;endSize=5;jettySize=auto;orthogonalLoop=1;strokeColor=#B3B3B3;strokeWidth=1;fontFamily=Verdana;fontSize=12" edge="1" parent="1" source="oK9c064ExcJ41yOFLu6--63" target="oK9c064ExcJ41yOFLu6--66">
          <mxGeometry relative="1" as="geometry" />
        </mxCell>
        <mxCell id="oK9c064ExcJ41yOFLu6--68" value="relation" style="edgeStyle=none;rounded=1;html=1;labelBackgroundColor=none;startArrow=none;startFill=0;startSize=5;endArrow=classicThin;endFill=1;endSize=5;jettySize=auto;orthogonalLoop=1;strokeColor=#B3B3B3;strokeWidth=1;fontFamily=Verdana;fontSize=12" edge="1" parent="1" source="oK9c064ExcJ41yOFLu6--63" target="oK9c064ExcJ41yOFLu6--65">
          <mxGeometry relative="1" as="geometry" />
        </mxCell>
        <mxCell id="oK9c064ExcJ41yOFLu6--69" value="relation" style="edgeStyle=none;rounded=1;html=1;labelBackgroundColor=none;startArrow=none;startFill=0;startSize=5;endArrow=classicThin;endFill=1;endSize=5;jettySize=auto;orthogonalLoop=1;strokeColor=#B3B3B3;strokeWidth=1;fontFamily=Verdana;fontSize=12" edge="1" parent="1" source="oK9c064ExcJ41yOFLu6--63" target="oK9c064ExcJ41yOFLu6--64">
          <mxGeometry relative="1" as="geometry" />
        </mxCell>
        <mxCell id="oK9c064ExcJ41yOFLu6--70" value="No" style="edgeStyle=none;rounded=1;html=1;labelBackgroundColor=none;startArrow=none;startFill=0;startSize=5;endArrow=classicThin;endFill=1;endSize=5;jettySize=auto;orthogonalLoop=1;strokeColor=#B3B3B3;strokeWidth=1;fontFamily=Verdana;fontSize=12" edge="1" parent="1" source="oK9c064ExcJ41yOFLu6--22" target="oK9c064ExcJ41yOFLu6--63">
          <mxGeometry x="-0.504" y="20" relative="1" as="geometry">
            <mxPoint as="offset" />
          </mxGeometry>
        </mxCell>
        <mxCell id="oK9c064ExcJ41yOFLu6--71" value="relation" style="edgeStyle=none;rounded=1;html=1;labelBackgroundColor=none;startArrow=none;startFill=0;startSize=5;endArrow=classicThin;endFill=1;endSize=5;jettySize=auto;orthogonalLoop=1;strokeColor=#B3B3B3;strokeWidth=1;fontFamily=Verdana;fontSize=12" edge="1" parent="1" source="oK9c064ExcJ41yOFLu6--4" target="oK9c064ExcJ41yOFLu6--56">
          <mxGeometry relative="1" as="geometry" />
        </mxCell>
        <mxCell id="oK9c064ExcJ41yOFLu6--72" value="relation" style="edgeStyle=none;rounded=1;html=1;labelBackgroundColor=none;startArrow=none;startFill=0;startSize=5;endArrow=classicThin;endFill=1;endSize=5;jettySize=auto;orthogonalLoop=1;strokeColor=#B3B3B3;strokeWidth=1;fontFamily=Verdana;fontSize=12" edge="1" parent="1" source="oK9c064ExcJ41yOFLu6--5" target="oK9c064ExcJ41yOFLu6--54">
          <mxGeometry relative="1" as="geometry" />
        </mxCell>
        <mxCell id="oK9c064ExcJ41yOFLu6--73" value="relation" style="edgeStyle=none;rounded=1;html=1;labelBackgroundColor=none;startArrow=none;startFill=0;startSize=5;endArrow=classicThin;endFill=1;endSize=5;jettySize=auto;orthogonalLoop=1;strokeColor=#B3B3B3;strokeWidth=1;fontFamily=Verdana;fontSize=12" edge="1" parent="1" source="oK9c064ExcJ41yOFLu6--7" target="oK9c064ExcJ41yOFLu6--55">
          <mxGeometry relative="1" as="geometry" />
        </mxCell>
        <mxCell id="0NoSY26yRDO7lUuA1o2Z-2" value="视频" style="whiteSpace=wrap;html=1;rounded=1;shadow=1;comic=0;labelBackgroundColor=none;strokeWidth=2;fontFamily=Verdana;fontSize=12;align=center;arcSize=50;" vertex="1" parent="1">
          <mxGeometry x="997" y="800" width="100" height="20" as="geometry" />
        </mxCell>
        <mxCell id="0NoSY26yRDO7lUuA1o2Z-3" value="relation" style="edgeStyle=none;rounded=1;html=1;labelBackgroundColor=none;startArrow=none;startFill=0;startSize=5;endArrow=classicThin;endFill=1;endSize=5;jettySize=auto;orthogonalLoop=1;strokeColor=#B3B3B3;strokeWidth=1;fontFamily=Verdana;fontSize=12;exitX=0.958;exitY=0.263;exitDx=0;exitDy=0;exitPerimeter=0;" edge="1" parent="1" target="0NoSY26yRDO7lUuA1o2Z-2" source="oK9c064ExcJ41yOFLu6--6">
          <mxGeometry relative="1" as="geometry">
            <mxPoint x="945" y="791" as="sourcePoint" />
          </mxGeometry>
        </mxCell>
        <mxCell id="0NoSY26yRDO7lUuA1o2Z-4" value="主讲人" style="whiteSpace=wrap;html=1;rounded=1;shadow=1;comic=0;labelBackgroundColor=none;strokeWidth=2;fontFamily=Verdana;fontSize=12;align=center;arcSize=50;" vertex="1" parent="1">
          <mxGeometry x="727" y="890" width="100" height="20" as="geometry" />
        </mxCell>
        <mxCell id="0NoSY26yRDO7lUuA1o2Z-5" value="relation" style="edgeStyle=none;rounded=1;html=1;labelBackgroundColor=none;startArrow=none;startFill=0;startSize=5;endArrow=classicThin;endFill=1;endSize=5;jettySize=auto;orthogonalLoop=1;strokeColor=#B3B3B3;strokeWidth=1;fontFamily=Verdana;fontSize=12;exitX=0;exitY=1;exitDx=0;exitDy=0;" edge="1" parent="1" target="0NoSY26yRDO7lUuA1o2Z-4" source="oK9c064ExcJ41yOFLu6--6">
          <mxGeometry relative="1" as="geometry">
            <mxPoint x="675" y="881" as="sourcePoint" />
          </mxGeometry>
        </mxCell>
      </root>
    </mxGraphModel>
  </diagram>
  <diagram id="z3FjgcwrAvaSBaf-WgK2" name="第 2 页">
    <mxGraphModel dx="1306" dy="843" grid="1" gridSize="10" guides="1" tooltips="1" connect="1" arrows="1" fold="1" page="1" pageScale="1" pageWidth="827" pageHeight="1169" math="0" shadow="0">
      <root>
        <mxCell id="0" />
        <mxCell id="1" parent="0" />
        <mxCell id="DlFFiucN22qhMsprczZw-1" value="书籍" style="swimlane;fontStyle=0;childLayout=stackLayout;horizontal=1;startSize=26;fillColor=none;horizontalStack=0;resizeParent=1;resizeParentMax=0;resizeLast=0;collapsible=1;marginBottom=0;whiteSpace=wrap;html=1;" vertex="1" parent="1">
          <mxGeometry x="80" y="190" width="140" height="208" as="geometry" />
        </mxCell>
        <mxCell id="DlFFiucN22qhMsprczZw-2" value="书名" style="text;strokeColor=none;fillColor=none;align=left;verticalAlign=top;spacingLeft=4;spacingRight=4;overflow=hidden;rotatable=0;points=[[0,0.5],[1,0.5]];portConstraint=eastwest;whiteSpace=wrap;html=1;" vertex="1" parent="DlFFiucN22qhMsprczZw-1">
          <mxGeometry y="26" width="140" height="26" as="geometry" />
        </mxCell>
        <mxCell id="RbqiKuR6i_I7kaeO5Djs-4" value="图片&amp;nbsp;" style="text;strokeColor=none;fillColor=none;align=left;verticalAlign=top;spacingLeft=4;spacingRight=4;overflow=hidden;rotatable=0;points=[[0,0.5],[1,0.5]];portConstraint=eastwest;whiteSpace=wrap;html=1;" vertex="1" parent="DlFFiucN22qhMsprczZw-1">
          <mxGeometry y="52" width="140" height="26" as="geometry" />
        </mxCell>
        <mxCell id="RbqiKuR6i_I7kaeO5Djs-1" value="作者" style="text;strokeColor=none;fillColor=none;align=left;verticalAlign=top;spacingLeft=4;spacingRight=4;overflow=hidden;rotatable=0;points=[[0,0.5],[1,0.5]];portConstraint=eastwest;whiteSpace=wrap;html=1;" vertex="1" parent="DlFFiucN22qhMsprczZw-1">
          <mxGeometry y="78" width="140" height="26" as="geometry" />
        </mxCell>
        <mxCell id="DlFFiucN22qhMsprczZw-3" value="简介" style="text;strokeColor=none;fillColor=none;align=left;verticalAlign=top;spacingLeft=4;spacingRight=4;overflow=hidden;rotatable=0;points=[[0,0.5],[1,0.5]];portConstraint=eastwest;whiteSpace=wrap;html=1;" vertex="1" parent="DlFFiucN22qhMsprczZw-1">
          <mxGeometry y="104" width="140" height="26" as="geometry" />
        </mxCell>
        <mxCell id="DlFFiucN22qhMsprczZw-4" value="ISBN&lt;span style=&quot;white-space: pre;&quot;&gt;	&lt;/span&gt;" style="text;strokeColor=none;fillColor=none;align=left;verticalAlign=top;spacingLeft=4;spacingRight=4;overflow=hidden;rotatable=0;points=[[0,0.5],[1,0.5]];portConstraint=eastwest;whiteSpace=wrap;html=1;" vertex="1" parent="DlFFiucN22qhMsprczZw-1">
          <mxGeometry y="130" width="140" height="26" as="geometry" />
        </mxCell>
        <mxCell id="RbqiKuR6i_I7kaeO5Djs-2" value="版权方" style="text;strokeColor=none;fillColor=none;align=left;verticalAlign=top;spacingLeft=4;spacingRight=4;overflow=hidden;rotatable=0;points=[[0,0.5],[1,0.5]];portConstraint=eastwest;whiteSpace=wrap;html=1;" vertex="1" parent="DlFFiucN22qhMsprczZw-1">
          <mxGeometry y="156" width="140" height="26" as="geometry" />
        </mxCell>
        <mxCell id="RbqiKuR6i_I7kaeO5Djs-3" value="上线时间" style="text;strokeColor=none;fillColor=none;align=left;verticalAlign=top;spacingLeft=4;spacingRight=4;overflow=hidden;rotatable=0;points=[[0,0.5],[1,0.5]];portConstraint=eastwest;whiteSpace=wrap;html=1;" vertex="1" parent="DlFFiucN22qhMsprczZw-1">
          <mxGeometry y="182" width="140" height="26" as="geometry" />
        </mxCell>
      </root>
    </mxGraphModel>
  </diagram>
</mxfile>
